<svg width="31" height="31" viewBox="0 0 31 31" fill="none" xmlns="http://www.w3.org/2000/svg">
<path fill-rule="evenodd" clip-rule="evenodd" d="M15.5 30.125C17.4206 30.125 19.3224 29.7467 21.0967 29.0117C22.8711 28.2768 24.4834 27.1995 25.8414 25.8414C27.1995 24.4834 28.2768 22.8711 29.0117 21.0967C29.7467 19.3224 30.125 17.4206 30.125 15.5C30.125 13.5794 29.7467 11.6776 29.0117 9.90325C28.2768 8.12887 27.1995 6.51662 25.8414 5.15856C24.4834 3.80051 22.8711 2.72324 21.0967 1.98826C19.3224 1.25329 17.4206 0.875 15.5 0.875C11.6212 0.875 7.90128 2.41584 5.15856 5.15856C2.41584 7.90128 0.875 11.6212 0.875 15.5C0.875 19.3788 2.41584 23.0987 5.15856 25.8414C7.90128 28.5842 11.6212 30.125 15.5 30.125ZM15.123 21.415L23.248 11.665L20.752 9.585L13.7645 17.9684L10.1489 14.3511L7.85113 16.6489L12.7261 21.5239L13.9839 22.7816L15.123 21.415Z" fill="#F2E30D"/>
</svg>
