<svg width="61" height="37" viewBox="0 0 61 37" fill="none" xmlns="http://www.w3.org/2000/svg">
<g clip-path="url(#clip0_2686_36)">
<mask id="mask0_2686_36" style="mask-type:luminance" maskUnits="userSpaceOnUse" x="-16" y="-22" width="93" height="92">
<path d="M76.7243 -21.9854H-15.8149V69.5316H76.7243V-21.9854Z" fill="white"/>
</mask>
<g mask="url(#mask0_2686_36)">
<path d="M18.4904 36.9382C17.9114 35.6492 17.2373 34.3893 16.6061 33.1244L12.1627 24.3085L0.0141602 0.0471376C6.00111 0.0213091 11.9978 -0.013546 17.984 0.0558067C18.4584 1.14552 19.12 2.24337 19.6779 3.30064L22.9217 9.4833L28.4161 20.1333C29.1152 21.4885 29.7755 22.8617 30.5004 24.2039C31.0288 23.4325 31.4267 22.4969 31.8593 21.6643L34.6195 16.3103L43.0711 0.0881593C44.4451 0.0501762 45.8264 0.073056 47.201 0.0722516L55.2493 0.0879806C54.4063 1.27457 53.6788 2.56099 52.8846 3.78235L52.1171 3.80049C52.0225 3.97781 51.9385 4.1603 51.8523 4.34173L52.9508 4.35129C53.3531 5.05903 53.7963 5.74478 54.229 6.43473C53.0793 6.44885 51.928 6.43589 50.7781 6.43545L50.5195 6.99232C51.8644 7.04005 53.2226 7.00654 54.5691 7.01082C54.9565 7.57119 55.3151 8.15532 55.6852 8.7273C53.6537 8.74384 51.6221 8.74053 49.5907 8.71747L49.2952 9.30572L50.1365 9.3286L51.2894 10.9924C50.3221 10.9905 49.3548 10.9998 48.3877 11.0204C48.2285 11.182 48.1191 11.3543 48.0023 11.5457L48.5115 11.6388C48.2348 12.2405 47.8893 12.8092 47.6181 13.4158C47.5004 13.4108 47.3297 13.3866 47.2207 13.4356C47.0178 13.5268 46.9281 13.885 46.855 14.0753L47.9978 14.0727C48.3536 14.5981 48.6885 15.1364 49.0023 15.6875C47.9946 15.7062 46.9847 15.6978 45.9767 15.7011C45.8677 15.9017 45.7693 16.1079 45.6685 16.3127L47.8429 16.3106L49.4258 16.3111C49.6804 16.8787 50.0023 17.4244 50.3003 17.971C48.4774 18.0019 46.6487 17.9683 44.8252 17.9627L44.4989 18.5787L45.4668 18.5773L46.5961 20.2411L43.6483 20.2437C43.527 20.4491 43.4182 20.6594 43.3094 20.8713C44.5135 20.8986 45.7226 20.8767 46.9275 20.8839C47.3245 21.4007 47.6712 21.9579 48.0278 22.5025L42.4502 22.5158C42.3468 22.6903 42.2517 22.8614 42.1682 23.0465C42.2127 23.1673 42.4669 23.1056 42.581 23.2711C42.9151 23.7563 43.1458 24.3075 43.492 24.7919L41.2714 24.7998C41.1482 24.9986 41.0507 25.2138 40.9471 25.4232L43.8358 25.4274C43.6122 25.9823 43.3527 26.5265 43.1038 27.0709L40.0311 27.0605C39.8773 27.3293 39.745 27.5991 39.6202 27.882C39.8444 28.3909 40.1104 28.889 40.3563 29.3884L38.7774 29.3933L38.5101 29.9793L40.622 29.984C40.9068 30.5385 41.2039 31.0866 41.513 31.6282L37.5933 31.6361L37.3189 32.2127L41.8186 32.2126C42.1221 32.7986 42.437 33.3785 42.763 33.9525L36.4051 33.9494L36.123 34.5134C36.5233 34.5296 36.9258 34.5287 37.3265 34.5357C37.8572 35.2766 38.3989 36.1298 38.7931 36.9506L25.9701 36.9606C23.4792 36.9612 20.9804 36.9999 18.4904 36.9382ZM17.8293 11.6779C16.0072 11.9358 14.458 12.8566 13.3543 14.3186C12.893 14.9296 12.561 15.5719 12.3143 16.2925L12.6989 15.9877C14.3114 14.7873 16.2556 13.9826 18.2946 13.9272L18.2915 11.6357L17.8293 11.6779ZM19.0465 11.6591L19.0596 13.937C21.3509 14.1407 23.2174 14.7238 25.0008 16.2188C24.3807 14.5819 22.7725 12.9213 21.1715 12.1914C20.5223 11.8955 19.7689 11.651 19.0465 11.6591ZM18.5784 14.6322C16.0863 14.7317 13.7848 15.6644 12.0759 17.4931C11.817 17.7701 11.5662 18.065 11.3337 18.3639C11.3741 18.42 11.4151 18.4755 11.4569 18.5304C11.4986 18.5854 11.5411 18.6399 11.5843 18.6939C11.6274 18.7478 11.6712 18.8012 11.7158 18.854C11.7602 18.9069 11.8054 18.9591 11.8512 19.0109C11.897 19.0626 11.9436 19.1138 11.9907 19.1644C12.0378 19.215 12.0856 19.265 12.1339 19.3144C12.1823 19.3638 12.2313 19.4126 12.2809 19.4608C12.3306 19.509 12.3808 19.5565 12.4317 19.6034C12.4826 19.6503 12.534 19.6966 12.5859 19.7423C12.6379 19.788 12.6905 19.833 12.7436 19.8774C12.7969 19.9218 12.8505 19.9655 12.9048 20.0085C12.9591 20.0514 13.0138 20.0938 13.0692 20.1355C13.1245 20.1772 13.1804 20.2181 13.2367 20.2584C13.2931 20.2987 13.3499 20.3382 13.4073 20.3771C13.4647 20.416 13.5226 20.4542 13.5809 20.4916C13.6393 20.5291 13.6981 20.5658 13.7573 20.6018C13.8166 20.6377 13.8763 20.6729 13.9365 20.7074C13.9967 20.7419 14.0573 20.7757 14.1183 20.8087C14.1793 20.8417 14.2407 20.8739 14.3026 20.9054C14.3644 20.9369 14.4266 20.9676 14.4892 20.9975C14.5519 21.0275 14.6149 21.0566 14.6782 21.0849C14.7415 21.1134 14.8053 21.141 14.8693 21.1677C14.9334 21.1945 14.9978 21.2205 15.0625 21.2457C15.1272 21.2709 15.1922 21.2953 15.2576 21.3188C15.3229 21.3424 15.3886 21.3652 15.4545 21.3872C15.5204 21.4091 15.5866 21.4303 15.653 21.4506C15.7194 21.4709 15.7861 21.4903 15.8531 21.509C15.9201 21.5277 15.9872 21.5455 16.0545 21.5625C16.122 21.5795 16.1896 21.5957 16.2573 21.611C16.3252 21.6263 16.3932 21.6408 16.4613 21.6544C16.5295 21.668 16.5978 21.6808 16.6663 21.6928C16.7348 21.7046 16.8034 21.7157 16.8722 21.726C17.4739 21.8196 18.0741 21.8479 18.6821 21.8499C20.958 21.86 23.1428 21.2556 24.7935 19.634C25.2032 19.2315 25.5574 18.773 25.8878 18.3058C24.5786 16.4144 22.5861 15.1835 20.3141 14.7697C19.745 14.6661 19.1575 14.6095 18.5784 14.6322ZM25.1846 20.2361C23.4993 21.8742 21.4053 22.4403 19.0993 22.5414C19.0947 23.0623 19.0031 24.6205 19.1241 25.0141C21.078 24.8385 22.6649 24.0045 23.9215 22.5111C24.2317 22.1423 25.2093 20.7421 25.1921 20.2772C25.1915 20.2633 25.1871 20.2499 25.1846 20.2361ZM12.4107 20.5811C13.1364 22.304 14.494 23.7768 16.2459 24.4995C16.9098 24.7734 17.5892 24.9329 18.3002 25.0296L18.3101 22.5355C16.6237 22.4938 15.0507 22.1244 13.5632 21.3149C13.1674 21.0994 12.8183 20.766 12.4107 20.5811Z" fill="white" fill-opacity="0.68"/>
<path d="M59.2253 3.78363C58.663 3.13202 58.1913 2.34376 57.6948 1.63638C57.3322 1.1199 56.9207 0.624334 56.5869 0.0902471C58.06 0.0795225 59.533 0.0781821 61.0061 0.0862256C60.5755 0.888875 60.206 1.72593 59.8262 2.55307C59.6317 2.96597 59.4313 3.37619 59.2253 3.78363Z" fill="white" fill-opacity="0.68"/>
<path d="M53.5391 3.77933L55.9008 0.112305C56.2485 0.447539 56.5435 1.01907 56.8249 1.42348C57.3732 2.21138 57.9437 2.98499 58.4964 3.77012L56.0633 3.77539L53.5391 3.77933Z" fill="white" fill-opacity="0.68"/>
<path d="M54.8546 6.43334C54.48 5.82731 53.7976 5.01679 53.6069 4.35419C55.3908 4.30405 57.1946 4.32845 58.9795 4.35633C58.7308 4.84654 58.4933 5.34193 58.2668 5.8425L58.0062 6.43799L54.8546 6.43334Z" fill="white" fill-opacity="0.68"/>
<path d="M57.1251 8.15201C57.05 8.30081 56.9584 8.5364 56.8209 8.63631C56.7291 8.70307 56.6376 8.73775 56.5225 8.71442C56.1908 8.64731 55.4485 7.33568 55.2217 7.00635L57.6694 7.0152L57.1251 8.15201Z" fill="white" fill-opacity="0.68"/>
<path d="M51.8974 10.9905C51.5428 10.412 51.2031 9.8128 50.7505 9.30249C52.6679 9.27041 54.5937 9.2906 56.5115 9.30991C56.3503 9.68393 56.163 10.0492 55.9863 10.4164L55.7101 10.9961C54.4392 10.9863 53.1683 10.9844 51.8974 10.9905Z" fill="white" fill-opacity="0.68"/>
<path d="M48.2261 13.3793C48.598 12.806 48.8956 12.1679 49.2429 11.5762L51.6604 11.5849L52.7856 13.3713L51.8047 13.3726C50.6118 13.3625 49.419 13.3647 48.2261 13.3793Z" fill="white" fill-opacity="0.68"/>
<path d="M53.4582 13.3317C53.0744 12.8113 52.5723 12.1605 52.2881 11.5934C53.3133 11.5693 54.3433 11.5905 55.369 11.5939L54.7614 12.8228C54.6778 12.9895 54.5901 13.1542 54.5041 13.3197C54.1558 13.3291 53.8067 13.3282 53.4582 13.3317Z" fill="white" fill-opacity="0.68"/>
<path d="M49.6763 15.6779C49.3043 15.1262 48.903 14.5782 48.5703 14.0029C50.0971 13.9522 51.6396 13.9965 53.1678 14.0055C53.3348 14.273 53.5071 14.5374 53.6774 14.8029C53.5906 15.0397 53.4902 15.273 53.3955 15.507L53.3428 15.6021C53.1237 15.7876 50.1465 15.6797 49.6763 15.6779Z" fill="white" fill-opacity="0.68"/>
<path d="M19.2942 21.5723C18.4879 21.6827 17.6661 21.5437 16.9712 21.1128C16.9254 21.0839 16.8803 21.0539 16.8359 21.0228C16.7915 20.9917 16.748 20.9595 16.7052 20.9263C16.6625 20.893 16.6206 20.8588 16.5796 20.8235C16.5386 20.7882 16.4985 20.752 16.4592 20.7147C16.4201 20.6775 16.3819 20.6392 16.3446 20.6001C16.3072 20.561 16.271 20.521 16.2357 20.48C16.2004 20.4391 16.1662 20.3974 16.133 20.3547C16.0998 20.3122 16.0677 20.2689 16.0367 20.2246C16.0057 20.1805 15.9758 20.1356 15.947 20.0899C15.9183 20.0443 15.8907 19.998 15.8642 19.951C15.8378 19.904 15.8126 19.8564 15.7886 19.8082C15.7645 19.76 15.7417 19.7112 15.7201 19.6618C15.6985 19.6125 15.6781 19.5626 15.659 19.5123C15.6399 19.462 15.6221 19.4112 15.6056 19.36C15.5891 19.3088 15.5738 19.2572 15.5598 19.2052C15.5458 19.1533 15.5331 19.101 15.5218 19.0484C15.5098 18.994 15.4992 18.9394 15.4899 18.8845C15.4807 18.8296 15.4729 18.7746 15.4665 18.7192C15.4601 18.664 15.4551 18.6086 15.4515 18.5531C15.448 18.4976 15.4458 18.442 15.4451 18.3863C15.4444 18.3306 15.4451 18.2751 15.4472 18.2195C15.4493 18.1639 15.4528 18.1084 15.4577 18.0529C15.4627 17.9975 15.469 17.9422 15.4768 17.8871C15.4846 17.8319 15.4938 17.7771 15.5044 17.7225C15.515 17.6679 15.5269 17.6135 15.5403 17.5595C15.5536 17.5054 15.5684 17.4518 15.5844 17.3984C15.6005 17.345 15.618 17.2922 15.6368 17.2398C15.6556 17.1873 15.6757 17.1354 15.6972 17.084C15.7186 17.0325 15.7414 16.9817 15.7655 16.9313C15.7896 16.881 15.8149 16.8314 15.8415 16.7824C15.8681 16.7333 15.896 16.685 15.925 16.6374C15.9541 16.5898 15.9843 16.5428 16.0158 16.4967C16.572 15.6725 17.3114 15.2594 18.2769 15.0688C19.0899 15.001 19.7925 15.093 20.4887 15.542C21.2618 16.0407 21.7548 16.8116 21.941 17.7004C21.9523 17.753 21.9622 17.8059 21.9707 17.859C21.9793 17.9122 21.9865 17.9655 21.9923 18.0189C21.9982 18.0724 22.0027 18.126 22.0059 18.1797C22.0091 18.2334 22.0109 18.2872 22.0113 18.3409C22.0118 18.3947 22.0109 18.4485 22.0086 18.5022C22.0063 18.5559 22.0026 18.6097 21.9977 18.6633C21.9927 18.7168 21.9864 18.7703 21.9787 18.8234C21.971 18.8767 21.962 18.9298 21.9516 18.9826C21.9412 19.0354 21.9295 19.0879 21.9165 19.1402C21.9035 19.1924 21.8891 19.2442 21.8735 19.2958C21.8579 19.3473 21.8409 19.3984 21.8227 19.449C21.8045 19.4997 21.7849 19.5499 21.7642 19.5997C21.7435 19.6494 21.7214 19.6986 21.6982 19.7472C21.675 19.7958 21.6505 19.8438 21.6248 19.8913C21.5991 19.9387 21.5723 19.9855 21.5442 20.0316C21.5162 20.0777 21.487 20.1231 21.4566 20.1677C20.9497 20.9091 20.1776 21.4 19.2942 21.5723ZM18.564 16.8568C18.0995 16.9709 17.7134 17.1525 17.4541 17.5731C17.4287 17.6144 17.4054 17.6569 17.3844 17.7004C17.3633 17.7439 17.3445 17.7884 17.328 17.8339C17.3114 17.8794 17.2972 17.9256 17.2854 17.9724C17.2736 18.0194 17.2643 18.0667 17.2573 18.1145C17.2503 18.1624 17.2458 18.2103 17.2437 18.2587C17.2417 18.307 17.2421 18.3552 17.245 18.4034C17.2478 18.4517 17.2531 18.4996 17.261 18.5473C17.2688 18.595 17.279 18.6422 17.2915 18.6888C17.3037 18.7365 17.3181 18.7835 17.335 18.8298C17.3519 18.876 17.3711 18.9213 17.3925 18.9657C17.4139 19.01 17.4376 19.0532 17.4634 19.0953C17.4892 19.1373 17.5171 19.178 17.547 19.2172C17.5769 19.2564 17.6087 19.2942 17.6425 19.3304C17.6762 19.3665 17.7117 19.4009 17.7489 19.4335C17.7861 19.4661 17.8248 19.4968 17.8651 19.5256C17.9054 19.5544 17.9471 19.5811 17.9901 19.6058C18.2783 19.7679 18.5623 19.8096 18.8874 19.7901C19.3664 19.6681 19.7768 19.4647 20.0338 19.0238C20.0577 18.9825 20.0794 18.9402 20.0989 18.8967C20.1183 18.8533 20.1356 18.809 20.1505 18.7637C20.1654 18.7185 20.1779 18.6727 20.1881 18.6262C20.1982 18.5798 20.206 18.533 20.2113 18.4857C20.2167 18.4384 20.2195 18.3911 20.2198 18.3435C20.2203 18.296 20.2182 18.2485 20.2138 18.2011C20.2092 18.1539 20.2023 18.1069 20.193 18.0602C20.1836 18.0136 20.1718 17.9676 20.1577 17.9221C20.1502 17.8977 20.1422 17.8736 20.1334 17.8496C20.1247 17.8257 20.1153 17.802 20.1053 17.7785C20.0954 17.755 20.0848 17.7318 20.0736 17.7089C20.0624 17.6859 20.0506 17.6633 20.0383 17.641C20.0259 17.6186 20.013 17.5966 19.9995 17.5749C19.9859 17.5532 19.9718 17.5319 19.9573 17.5109C19.9427 17.4899 19.9275 17.4694 19.9117 17.4492C19.8961 17.429 19.8798 17.4092 19.8631 17.3898C19.8464 17.3704 19.8292 17.3516 19.8115 17.3331C19.7938 17.3146 19.7756 17.2966 19.7569 17.279C19.7383 17.2614 19.7193 17.2443 19.6996 17.2278C19.6801 17.2112 19.6602 17.1951 19.6398 17.1795C19.6194 17.164 19.5986 17.149 19.5775 17.1344C19.5563 17.1198 19.5348 17.1059 19.5129 17.0925C19.491 17.0791 19.4687 17.0662 19.4462 17.054C19.4237 17.0417 19.4009 17.03 19.3777 17.0188C19.1176 16.8924 18.8521 16.84 18.564 16.8568Z" fill="white" fill-opacity="0.68"/>
<path d="M50.8869 17.9574C50.6316 17.3982 50.3237 16.8628 50.0283 16.3236C51.0253 16.3087 52.0246 16.3215 53.0218 16.3218C52.879 16.6902 52.6888 17.0456 52.5159 17.4013L52.2151 17.9572L50.8869 17.9574Z" fill="white" fill-opacity="0.68"/>
<path d="M47.2671 20.2439C46.9735 19.8425 46.2759 19.0148 46.1445 18.5638C47.637 18.5204 49.1508 18.5512 50.6439 18.5753C50.8496 18.9964 51.0996 19.3987 51.3358 19.8036L51.1209 20.1813L51.068 20.2455C50.7262 20.3224 50.2828 20.2696 49.9306 20.2684C49.0427 20.2686 48.1548 20.2604 47.2671 20.2439Z" fill="white" fill-opacity="0.68"/>
<path d="M51.7283 19.0658L51.6701 19.1591L51.6089 19.1646C51.4383 19.0127 51.352 18.7611 51.2544 18.5582L51.94 18.5566L51.7283 19.0658Z" fill="white" fill-opacity="0.68"/>
<path d="M48.6613 22.5119C48.2998 21.9886 47.9069 21.4621 47.6313 20.8887C48.6697 20.8636 49.7157 20.9025 50.755 20.9125L50.2025 21.9481L49.9221 22.5147C49.502 22.5181 49.0814 22.5129 48.6613 22.5119Z" fill="white" fill-opacity="0.68"/>
<path d="M44.1082 24.8004C43.7986 24.2344 43.4785 23.6744 43.1479 23.1202C44.9198 23.1084 46.6916 23.1117 48.4634 23.1298C48.6396 23.4634 48.8785 23.7726 49.0937 24.0829C49.011 24.2202 48.9379 24.3634 48.8621 24.5045C48.8136 24.6018 48.7609 24.6854 48.699 24.7743C48.2354 24.873 47.6572 24.8094 47.1774 24.8083L44.1082 24.8004Z" fill="white" fill-opacity="0.68"/>
<path d="M43.6865 27.0714C43.9589 26.5243 44.2229 25.979 44.4575 25.4149C45.7641 25.443 47.0755 25.4017 48.3832 25.4189C48.1062 25.9733 47.8218 26.5239 47.5301 27.0709L43.6865 27.0714Z" fill="white" fill-opacity="0.68"/>
<path d="M40.9604 29.4013C40.8048 29.1027 40.1509 27.9498 40.2126 27.7183L40.3669 27.6824C41.1647 27.6756 41.9625 27.675 42.7604 27.6804C42.5459 28.144 42.2986 28.5948 42.0628 29.0482L41.8494 29.4026L40.9604 29.4013Z" fill="white" fill-opacity="0.68"/>
<path d="M42.4531 29.3687C42.7878 28.8139 43.0625 28.225 43.3948 27.6678C44.6639 27.6729 45.933 27.671 47.2021 27.6621C46.9155 28.233 46.6258 28.8023 46.3329 29.37C45.0458 29.4165 43.742 29.3716 42.4531 29.3687Z" fill="white" fill-opacity="0.68"/>
<path d="M42.1686 31.588C41.8583 31.0572 41.5581 30.5248 41.2749 29.9794C42.8455 29.9603 44.418 29.976 45.9887 29.9818C45.8306 30.3395 45.6361 30.6861 45.4566 31.0341L45.176 31.6025C44.1764 31.5714 43.169 31.5912 42.1686 31.588Z" fill="white" fill-opacity="0.68"/>
<path d="M43.3843 33.9496C43.0179 33.3969 42.7025 32.801 42.4019 32.2111C43.2273 32.2049 44.0527 32.2068 44.8782 32.2168C44.6619 32.5726 44.4659 32.9415 44.2642 33.3056L43.9022 33.9655L43.3843 33.9496Z" fill="white" fill-opacity="0.68"/>
<path d="M39.4904 36.9374C38.9844 36.1379 38.4912 35.3322 37.9692 34.5425L41.6718 34.5451C41.3596 35.0358 41.0592 35.5336 40.7707 36.0385C40.5912 36.3436 40.4009 36.642 40.1999 36.9337C39.9639 36.9418 39.7266 36.937 39.4904 36.9374Z" fill="white" fill-opacity="0.68"/>
<path d="M40.8325 36.9526C41.2341 36.1373 41.7969 35.3197 42.2989 34.5576L43.6192 34.5658C43.4291 34.9107 42.5214 36.8431 42.2977 36.9567L40.8325 36.9526Z" fill="white" fill-opacity="0.68"/>
</g>
</g>
<defs>
<clipPath id="clip0_2686_36">
<rect width="61" height="37" fill="white"/>
</clipPath>
</defs>
</svg>
