<svg width="18" height="23" viewBox="0 0 18 23" fill="none" xmlns="http://www.w3.org/2000/svg">
<path d="M9.43541 11.9958L5.21531 7.3447C5.07177 7.1865 5.0023 7.00193 5.00689 6.791C5.01149 6.58007 5.08574 6.3955 5.22967 6.2373C5.37359 6.0791 5.54105 6 5.73206 6C5.92306 6 6.09053 6.0791 6.23445 6.2373L10.6555 11.094C10.7703 11.2206 10.8565 11.363 10.9139 11.5212C10.9713 11.6794 11 11.8376 11 11.9958C11 12.154 10.9713 12.3122 10.9139 12.4704C10.8565 12.6286 10.7703 12.7709 10.6555 12.8975L6.23445 17.7701C6.09091 17.9283 5.92096 18.0048 5.7246 17.9998C5.52823 17.9947 5.35847 17.9129 5.21531 17.7542C5.07216 17.5956 5.00039 17.4111 5 17.2005C4.99962 16.99 5.07139 16.8055 5.21531 16.6468L9.43541 11.9958Z" fill="white"/>
</svg>
