<svg width="16" height="9" viewBox="0 0 16 9" fill="none" xmlns="http://www.w3.org/2000/svg">
<path d="M7.99995 6.33748L13.5124 0.824975C13.6999 0.637475 13.9187 0.546725 14.1687 0.552725C14.4187 0.558725 14.6374 0.655725 14.8249 0.843725C15.0124 1.03172 15.1062 1.25047 15.1062 1.49997C15.1062 1.74947 15.0124 1.96822 14.8249 2.15622L9.0687 7.93123C8.9187 8.08123 8.74995 8.19373 8.56245 8.26873C8.37495 8.34373 8.18745 8.38123 7.99995 8.38123C7.81245 8.38123 7.62495 8.34373 7.43745 8.26873C7.24995 8.19373 7.0812 8.08123 6.9312 7.93123L1.1562 2.15623C0.968696 1.96873 0.877946 1.74673 0.883946 1.49023C0.889946 1.23373 0.986946 1.01198 1.17495 0.824976C1.36295 0.637976 1.5817 0.544226 1.8312 0.543726C2.0807 0.543226 2.29945 0.636976 2.48745 0.824976L7.99995 6.33748Z" fill="white"/>
</svg>
