<svg width="18" height="18" viewBox="0 0 18 18" fill="none" xmlns="http://www.w3.org/2000/svg">
<g clip-path="url(#clip0_2235_2708)">
<path d="M8.99995 15.3376L14.5124 9.8251C14.6999 9.6376 14.9187 9.54685 15.1687 9.55285C15.4187 9.55885 15.6374 9.65585 15.8249 9.84385C16.0124 10.0318 16.1062 10.2506 16.1062 10.5001C16.1062 10.7496 16.0124 10.9683 15.8249 11.1563L10.0687 16.9313C9.9187 17.0813 9.74995 17.1938 9.56245 17.2688C9.37495 17.3438 9.18745 17.3813 8.99995 17.3813C8.81245 17.3813 8.62495 17.3438 8.43745 17.2688C8.24995 17.1938 8.0812 17.0813 7.9312 16.9313L2.1562 11.1563C1.9687 10.9688 1.87795 10.7468 1.88395 10.4903C1.88995 10.2338 1.98695 10.0121 2.17495 9.8251C2.36295 9.6381 2.5817 9.54435 2.8312 9.54385C3.0807 9.54335 3.29945 9.6371 3.48745 9.8251L8.99995 15.3376Z" fill="#100E0E"/>
</g>
<defs>
<clipPath id="clip0_2235_2708">
<rect width="18" height="18" fill="white" transform="translate(0 18) rotate(-90)"/>
</clipPath>
</defs>
</svg>
