<svg width="22" height="22" viewBox="0 0 22 22" fill="none" xmlns="http://www.w3.org/2000/svg">
<path d="M2 0.75C1.66848 0.75 1.35054 0.881696 1.11612 1.11612C0.881696 1.35054 0.75 1.66848 0.75 2C0.75 2.33152 0.881696 2.64946 1.11612 2.88388C1.35054 3.1183 1.66848 3.25 2 3.25V0.75ZM4 2L5.246 1.904C5.22182 1.59008 5.08007 1.29685 4.84907 1.08291C4.61807 0.868967 4.31485 0.750078 4 0.75V2ZM20 5L21.242 5.138C21.2614 4.96331 21.2437 4.78649 21.1902 4.61908C21.1366 4.45168 21.0484 4.29745 20.9312 4.16647C20.814 4.03548 20.6704 3.93069 20.51 3.85893C20.3495 3.78717 20.1758 3.75005 20 3.75V5ZM2 3.25H4V0.75H2V3.25ZM7.073 16.105L17.428 15.366L17.25 12.872L6.895 13.612L7.073 16.105ZM20.426 12.483L21.242 5.138L18.758 4.862L17.942 12.207L20.426 12.483ZM2.754 2.096L2.984 5.096L5.477 4.904L5.247 1.904L2.754 2.096ZM2.984 5.096L3.601 13.113L6.094 12.921L5.477 4.904L2.984 5.096ZM20 3.75H4.23V6.25H20V3.75ZM17.428 15.366C18.1859 15.3117 18.9009 14.9936 19.4486 14.4669C19.9963 13.9402 20.3421 13.2382 20.426 12.483L17.942 12.207C17.9226 12.3813 17.8427 12.5432 17.7163 12.6647C17.5899 12.7862 17.4249 12.8595 17.25 12.872L17.428 15.366ZM6.895 13.61C6.69743 13.6241 6.50232 13.5594 6.35225 13.4301C6.20218 13.3009 6.10935 13.1185 6.094 12.921L3.601 13.113C3.66699 13.9693 4.06922 14.7636 4.71979 15.3242C5.37036 15.8849 6.21638 16.1662 7.073 16.105L6.895 13.61Z" fill="#100E0E"/>
<path d="M7.5 19.5H7.51V19.51H7.5V19.5ZM16.5 19.5H16.51V19.51H16.5V19.5Z" stroke="#100E0E" stroke-width="3.75" stroke-linejoin="round"/>
</svg>
