<svg width="17" height="17" viewBox="0 0 17 17" fill="none" xmlns="http://www.w3.org/2000/svg">
<path d="M14.6666 8.49997H6.42992M3.52259 8.49997H2.33325M3.52259 8.49997C3.52259 8.11452 3.6757 7.74486 3.94826 7.47231C4.22081 7.19975 4.59047 7.04663 4.97592 7.04663C5.36137 7.04663 5.73103 7.19975 6.00358 7.47231C6.27613 7.74486 6.42925 8.11452 6.42925 8.49997C6.42925 8.88542 6.27613 9.25508 6.00358 9.52763C5.73103 9.80018 5.36137 9.9533 4.97592 9.9533C4.59047 9.9533 4.22081 9.80018 3.94826 9.52763C3.6757 9.25508 3.52259 8.88542 3.52259 8.49997ZM14.6666 12.9046H10.8346M10.8346 12.9046C10.8346 13.2902 10.6811 13.6603 10.4085 13.9329C10.1359 14.2055 9.76612 14.3586 9.38059 14.3586C8.99514 14.3586 8.62548 14.2048 8.35292 13.9323C8.08037 13.6597 7.92725 13.2901 7.92725 12.9046M10.8346 12.9046C10.8346 12.5191 10.6811 12.1497 10.4085 11.8771C10.1359 11.6045 9.76612 11.4513 9.38059 11.4513C8.99514 11.4513 8.62548 11.6044 8.35292 11.877C8.08037 12.1495 7.92725 12.5192 7.92725 12.9046M7.92725 12.9046H2.33325M14.6666 4.0953H12.5966M9.68925 4.0953H2.33325M9.68925 4.0953C9.68925 3.70985 9.84237 3.34019 10.1149 3.06764C10.3875 2.79509 10.7571 2.64197 11.1426 2.64197C11.3334 2.64197 11.5224 2.67956 11.6988 2.7526C11.8751 2.82563 12.0353 2.93268 12.1702 3.06764C12.3052 3.20259 12.4123 3.36281 12.4853 3.53913C12.5583 3.71546 12.5959 3.90445 12.5959 4.0953C12.5959 4.28616 12.5583 4.47514 12.4853 4.65147C12.4123 4.82779 12.3052 4.98801 12.1702 5.12296C12.0353 5.25792 11.8751 5.36497 11.6988 5.43801C11.5224 5.51104 11.3334 5.54863 11.1426 5.54863C10.7571 5.54863 10.3875 5.39552 10.1149 5.12296C9.84237 4.85041 9.68925 4.48075 9.68925 4.0953Z" stroke="white" stroke-width="1.5" stroke-miterlimit="10" stroke-linecap="round"/>
</svg>
