<svg width="22" height="22" viewBox="0 0 22 22" fill="none" xmlns="http://www.w3.org/2000/svg">
<path d="M10 0.950195C14.9956 0.950195 19.0498 5.00439 19.0498 10L19.042 10.3838C18.9636 12.2858 18.2836 14.1166 17.0967 15.6123L21.3496 19.8633L21.3848 19.8994L19.8994 21.3848L19.8633 21.3496L15.6123 17.0967C14.1166 18.2836 12.2858 18.9636 10.3838 19.042L10 19.0498C5.00439 19.0498 0.950195 14.9956 0.950195 10C0.950195 5.00439 5.00439 0.950195 10 0.950195ZM10 3.0498C6.16061 3.0498 3.0498 6.16061 3.0498 10C3.0498 13.8394 6.16061 16.9502 10 16.9502C11.8072 16.9527 13.5439 16.2489 14.8398 14.9893L14.9893 14.8398L15.2188 14.5918C16.334 13.3266 16.9526 11.6943 16.9502 10C16.9502 6.16061 13.8394 3.0498 10 3.0498Z" fill="#100E0E" stroke="#100E0E" stroke-width="0.1"/>
</svg>
